<mxfile host="app.diagrams.net" modified="2022-04-18T09:11:04.736Z" agent="5.0 (Windows NT 10.0; Win64; x64) AppleWebKit/537.36 (KHTML, like Gecko) Chrome/100.0.4896.88 Safari/537.36" etag="Wekc0DQLdc9Mbd23y0u4" version="17.4.5" type="github">
  <diagram id="3bQQVW7HNjGUTakvHaPu" name="Page-1">
    <mxGraphModel dx="1673" dy="1075" grid="1" gridSize="10" guides="1" tooltips="1" connect="1" arrows="1" fold="1" page="1" pageScale="1" pageWidth="4681" pageHeight="3300" math="0" shadow="0">
      <root>
        <mxCell id="0" />
        <mxCell id="1" parent="0" />
        <mxCell id="X0i9imwfmP155sS6-dbD-2" value="DxRenderer" style="swimlane;fontStyle=1;align=center;verticalAlign=top;childLayout=stackLayout;horizontal=1;startSize=26;horizontalStack=0;resizeParent=1;resizeParentMax=0;resizeLast=0;collapsible=1;marginBottom=0;" vertex="1" parent="1">
          <mxGeometry x="540" y="1555" width="210" height="190" as="geometry" />
        </mxCell>
        <mxCell id="X0i9imwfmP155sS6-dbD-3" value="+ field: type" style="text;strokeColor=none;fillColor=none;align=left;verticalAlign=top;spacingLeft=4;spacingRight=4;overflow=hidden;rotatable=0;points=[[0,0.5],[1,0.5]];portConstraint=eastwest;" vertex="1" parent="X0i9imwfmP155sS6-dbD-2">
          <mxGeometry y="26" width="210" height="26" as="geometry" />
        </mxCell>
        <mxCell id="X0i9imwfmP155sS6-dbD-4" value="" style="line;strokeWidth=1;fillColor=none;align=left;verticalAlign=middle;spacingTop=-1;spacingLeft=3;spacingRight=3;rotatable=0;labelPosition=right;points=[];portConstraint=eastwest;" vertex="1" parent="X0i9imwfmP155sS6-dbD-2">
          <mxGeometry y="52" width="210" height="8" as="geometry" />
        </mxCell>
        <mxCell id="X0i9imwfmP155sS6-dbD-5" value="+ClearScreen(clearColor : float4)&#xa;+SetRenderTarget()&#xa;+SetSampler()&#xa;+SetShader()&#xa;+SetBuffer()&#xa;+SetScreenParam()&#xa;+Present()" style="text;strokeColor=none;fillColor=none;align=left;verticalAlign=top;spacingLeft=4;spacingRight=4;overflow=hidden;rotatable=0;points=[[0,0.5],[1,0.5]];portConstraint=eastwest;" vertex="1" parent="X0i9imwfmP155sS6-dbD-2">
          <mxGeometry y="60" width="210" height="130" as="geometry" />
        </mxCell>
      </root>
    </mxGraphModel>
  </diagram>
</mxfile>
